<svg id="kity_svg_6" xmlns="http://www.w3.org/2000/svg" xmlns:xlink="http://www.w3.org/1999/xlink" version="1.1" width="1212" height="265" style="background: rgb(251, 251, 251) none repeat scroll 0% 0%; visibility: visible;" viewBox="0 0 1212 265"><defs id="kity_defs_7"><linearGradient id="kity_linearGradient_17" x1="0" y1="0" x2="0" y2="1"><stop id="kity_stop_18" offset="0" stop-color="rgb(255, 255, 255)"></stop><stop id="kity_stop_19" offset="1" stop-color="rgb(204, 204, 204)"></stop></linearGradient><marker id="kity_marker_2" orient="auto" refX="6" refY="0" viewBox="-7 -7 14 14" markerWidth="7" markerHeight="7" markerUnits="userSpaceOnUse"><path id="kity_path_3" fill="rgb(115, 161, 191)" stroke="none" d="M6,0A6,6,0,1,1,-6,0A6,6,0,1,1,6,0"></path></marker></defs><g id="kity_g_8"><g id="minder1" text-rendering="optimize-speed"><g id="minder_connect_group1"><path id="kity_path_31" fill="none" stroke="rgb(115, 161, 191)" stroke-width="1" d="M514.5,60.5v30h-309.5V110.5"></path><path id="kity_path_33" fill="none" stroke="rgb(115, 161, 191)" stroke-width="1" d="M204.5,136.5v20h-150V171.5"></path><path id="kity_path_35" fill="none" stroke="rgb(115, 161, 191)" stroke-width="1" d="M204.5,136.5v20h-54V171.5"></path><path id="kity_path_37" fill="none" stroke="rgb(115, 161, 191)" stroke-width="1" d="M204.5,136.5v20h42V171.5"></path><path id="kity_path_39" fill="none" stroke="rgb(115, 161, 191)" stroke-width="1" d="M204.5,136.5v20h150V171.5"></path><path id="kity_path_41" fill="none" stroke="rgb(115, 161, 191)" stroke-width="1" d="M514.5,60.5v30h317.5V110.5"></path><path id="kity_path_43" fill="none" stroke="rgb(115, 161, 191)" stroke-width="1" d="M831.5,136.5v20h-201V171.5"></path><path id="kity_path_45" fill="none" stroke="rgb(115, 161, 191)" stroke-width="1" d="M630.5,193.5v15h-180V223.5"></path><path id="kity_path_47" fill="none" stroke="rgb(115, 161, 191)" stroke-width="1" d="M630.5,193.5v15h-96V223.5"></path><path id="kity_path_49" fill="none" stroke="rgb(115, 161, 191)" stroke-width="1" d="M630.5,193.5v15h-12V223.5"></path><path id="kity_path_51" fill="none" stroke="rgb(115, 161, 191)" stroke-width="1" d="M630.5,193.5v15h84V223.5"></path><path id="kity_path_53" fill="none" stroke="rgb(115, 161, 191)" stroke-width="1" d="M630.5,193.5v15h180V223.5"></path><path id="kity_path_55" fill="none" stroke="rgb(115, 161, 191)" stroke-width="1" d="M831.5,136.5v20h201V171.5"></path><path id="kity_path_57" fill="none" stroke="rgb(115, 161, 191)" stroke-width="1" d="M1032.5,193.5v15h-126V223.5"></path><path id="kity_path_59" fill="none" stroke="rgb(115, 161, 191)" stroke-width="1" d="M1032.5,193.5v15h-30V223.5"></path><path id="kity_path_61" fill="none" stroke="rgb(115, 161, 191)" stroke-width="1" d="M1032.5,193.5v15h54V223.5"></path><path id="kity_path_63" fill="none" stroke="rgb(115, 161, 191)" stroke-width="1" d="M1032.5,193.5v15h138V223.5"></path></g><g id="minder_node1"><path id="node_outline1" fill="rgb(115, 161, 191)" stroke="rgb(57, 80, 96)" d="M448.5,20.5h131a5,5,0,0,1,5,5v30a5,5,0,0,1,-5,5h-131a5,5,0,0,1,-5,-5v-30a5,5,0,0,1,5,-5z" stroke-width="3"></path><g id="node_text1" fill="white"><text id="kity_text_22" text-rendering="inherit" font-size="16" dy=".8em" y="29.939998626708984" x="467.5">store-waiter</text></g></g><g id="kity_g_12"><path id="kity_path_13" fill="none" stroke="none" d="M467.5,40.5h0v0h0z"></path></g><g id="kity_g_14"><path id="kity_path_15" fill="none" stroke="none" d="M467.5,40.5h0v0h0z"></path><path id="kity_path_16" fill="none" stroke="none"></path></g><g id="minder_node2"><g id="node_expander5" style="cursor: pointer;"><path id="kity_path_128" fill="white" stroke="gray" d="M210.5,103.5A6,6,0,1,1,198.5,103.5A6,6,0,1,1,210.5,103.5"></path><path id="kity_path_129" fill="none" stroke="gray" d="M200,103.5L209,103.5"></path></g><path id="node_outline6" fill="rgb(238, 243, 246)" stroke="rgb(115, 161, 191)" d="M166.5,110.5h76a3,3,0,0,1,3,3v20a3,3,0,0,1,-3,3h-76a3,3,0,0,1,-3,-3v-20a3,3,0,0,1,3,-3z" stroke-width="1"></path><g id="node_text6" fill="black"><text id="kity_text_73" text-rendering="inherit" font-size="14" dy=".8em" y="114.2599983215332" x="183.5">消费者</text></g></g><g id="minder_node3"><g id="node_expander1" style="cursor: pointer;" display="none"><path id="kity_path_116" fill="white" stroke="gray" d="M60.5,165.5A6,6,0,1,1,48.5,165.5A6,6,0,1,1,60.5,165.5"></path><path id="kity_path_117" fill="none" stroke="gray"></path></g><path id="node_outline2" fill="none" stroke="none" d="M25.5,171.5h58a5,5,0,0,1,5,5v12a5,5,0,0,1,-5,5h-58a5,5,0,0,1,-5,-5v-12a5,5,0,0,1,5,-5z"></path><g id="node_text2" fill="black"><text id="kity_text_65" text-rendering="inherit" font-size="12" dy=".8em" y="174.5800018310547" x="30.5">查看菜单</text></g></g><g id="minder_node4"><g id="node_expander2" style="cursor: pointer;" display="none"><path id="kity_path_119" fill="white" stroke="gray" d="M156.5,165.5A6,6,0,1,1,144.5,165.5A6,6,0,1,1,156.5,165.5"></path><path id="kity_path_120" fill="none" stroke="gray"></path></g><path id="node_outline3" fill="none" stroke="none" d="M133.5,171.5h34a5,5,0,0,1,5,5v12a5,5,0,0,1,-5,5h-34a5,5,0,0,1,-5,-5v-12a5,5,0,0,1,5,-5z"></path><g id="node_text3" fill="black"><text id="kity_text_67" text-rendering="inherit" font-size="12" dy=".8em" y="174.5800018310547" x="138.5">点餐</text></g></g><g id="minder_node5"><g id="node_expander3" style="cursor: pointer;" display="none"><path id="kity_path_122" fill="white" stroke="gray" d="M252.5,165.5A6,6,0,1,1,240.5,165.5A6,6,0,1,1,252.5,165.5"></path><path id="kity_path_123" fill="none" stroke="gray"></path></g><path id="node_outline4" fill="none" stroke="none" d="M217.5,171.5h58a5,5,0,0,1,5,5v12a5,5,0,0,1,-5,5h-58a5,5,0,0,1,-5,-5v-12a5,5,0,0,1,5,-5z"></path><g id="node_text4" fill="black"><text id="kity_text_69" text-rendering="inherit" font-size="12" dy=".8em" y="174.5800018310547" x="222.5">查看已点</text></g></g><g id="minder_node6"><g id="node_expander4" style="cursor: pointer;" display="none"><path id="kity_path_125" fill="white" stroke="gray" d="M360.5,165.5A6,6,0,1,1,348.5,165.5A6,6,0,1,1,360.5,165.5"></path><path id="kity_path_126" fill="none" stroke="gray"></path></g><path id="node_outline5" fill="none" stroke="none" d="M325.5,171.5h58a5,5,0,0,1,5,5v12a5,5,0,0,1,-5,5h-58a5,5,0,0,1,-5,-5v-12a5,5,0,0,1,5,-5z"></path><g id="node_text5" fill="black"><text id="kity_text_71" text-rendering="inherit" font-size="12" dy=".8em" y="174.5800018310547" x="330.5">查看进度</text></g></g><g id="minder_node7"><g id="node_expander17" style="cursor: pointer;"><path id="kity_path_164" fill="white" stroke="gray" d="M837.5,103.5A6,6,0,1,1,825.5,103.5A6,6,0,1,1,837.5,103.5"></path><path id="kity_path_165" fill="none" stroke="gray" d="M827,103.5L836,103.5"></path></g><path id="node_outline18" fill="rgb(238, 243, 246)" stroke="rgb(115, 161, 191)" d="M800.5,110.5h62a3,3,0,0,1,3,3v20a3,3,0,0,1,-3,3h-62a3,3,0,0,1,-3,-3v-20a3,3,0,0,1,3,-3z" stroke-width="1"></path><g id="node_text18" fill="black"><text id="kity_text_97" text-rendering="inherit" font-size="14" dy=".8em" y="114.2599983215332" x="817.5">商户</text></g></g><g id="minder_node8"><g id="node_expander11" style="cursor: pointer;"><path id="kity_path_146" fill="white" stroke="gray" d="M636.5,165.5A6,6,0,1,1,624.5,165.5A6,6,0,1,1,636.5,165.5"></path><path id="kity_path_147" fill="none" stroke="gray" d="M626,165.5L635,165.5"></path></g><path id="node_outline12" fill="none" stroke="none" d="M601.5,171.5h58a5,5,0,0,1,5,5v12a5,5,0,0,1,-5,5h-58a5,5,0,0,1,-5,-5v-12a5,5,0,0,1,5,-5z"></path><g id="node_text12" fill="black"><text id="kity_text_85" text-rendering="inherit" font-size="12" dy=".8em" y="174.5800018310547" x="606.5">菜单管理</text></g></g><g id="minder_node9"><g id="node_expander6" style="cursor: pointer;" display="none"><path id="kity_path_131" fill="white" stroke="gray" d="M456.5,217.5A6,6,0,1,1,444.5,217.5A6,6,0,1,1,456.5,217.5"></path><path id="kity_path_132" fill="none" stroke="gray"></path></g><path id="node_outline7" fill="none" stroke="none" d="M433.5,223.5h34a5,5,0,0,1,5,5v12a5,5,0,0,1,-5,5h-34a5,5,0,0,1,-5,-5v-12a5,5,0,0,1,5,-5z"></path><g id="node_text7" fill="black"><text id="kity_text_75" text-rendering="inherit" font-size="12" dy=".8em" y="226.5800018310547" x="438.5">新增</text></g></g><g id="minder_node10"><g id="node_expander7" style="cursor: pointer;" display="none"><path id="kity_path_134" fill="white" stroke="gray" d="M540.5,217.5A6,6,0,1,1,528.5,217.5A6,6,0,1,1,540.5,217.5"></path><path id="kity_path_135" fill="none" stroke="gray"></path></g><path id="node_outline8" fill="none" stroke="none" d="M517.5,223.5h34a5,5,0,0,1,5,5v12a5,5,0,0,1,-5,5h-34a5,5,0,0,1,-5,-5v-12a5,5,0,0,1,5,-5z"></path><g id="node_text8" fill="black"><text id="kity_text_77" text-rendering="inherit" font-size="12" dy=".8em" y="226.5800018310547" x="522.5">修改</text></g></g><g id="minder_node11"><g id="node_expander8" style="cursor: pointer;" display="none"><path id="kity_path_137" fill="white" stroke="gray" d="M624.5,217.5A6,6,0,1,1,612.5,217.5A6,6,0,1,1,624.5,217.5"></path><path id="kity_path_138" fill="none" stroke="gray"></path></g><path id="node_outline9" fill="none" stroke="none" d="M601.5,223.5h34a5,5,0,0,1,5,5v12a5,5,0,0,1,-5,5h-34a5,5,0,0,1,-5,-5v-12a5,5,0,0,1,5,-5z"></path><g id="node_text9" fill="black"><text id="kity_text_79" text-rendering="inherit" font-size="12" dy=".8em" y="226.5800018310547" x="606.5">筛选</text></g></g><g id="minder_node12"><g id="node_expander9" style="cursor: pointer;" display="none"><path id="kity_path_140" fill="white" stroke="gray" d="M720.5,217.5A6,6,0,1,1,708.5,217.5A6,6,0,1,1,720.5,217.5"></path><path id="kity_path_141" fill="none" stroke="gray"></path></g><path id="node_outline10" fill="none" stroke="none" d="M685.5,223.5h58a5,5,0,0,1,5,5v12a5,5,0,0,1,-5,5h-58a5,5,0,0,1,-5,-5v-12a5,5,0,0,1,5,-5z"></path><g id="node_text10" fill="black"><text id="kity_text_81" text-rendering="inherit" font-size="12" dy=".8em" y="226.5800018310547" x="690.5">查看详情</text></g></g><g id="minder_node13"><g id="node_expander10" style="cursor: pointer;" display="none"><path id="kity_path_143" fill="white" stroke="gray" d="M816.5,217.5A6,6,0,1,1,804.5,217.5A6,6,0,1,1,816.5,217.5"></path><path id="kity_path_144" fill="none" stroke="gray"></path></g><path id="node_outline11" fill="none" stroke="none" d="M793.5,223.5h34a5,5,0,0,1,5,5v12a5,5,0,0,1,-5,5h-34a5,5,0,0,1,-5,-5v-12a5,5,0,0,1,5,-5z"></path><g id="node_text11" fill="black"><text id="kity_text_83" text-rendering="inherit" font-size="12" dy=".8em" y="226.5800018310547" x="798.5">删除</text></g></g><g id="minder_node14"><g id="node_expander16" style="cursor: pointer;"><path id="kity_path_161" fill="white" stroke="gray" d="M1038.5,165.5A6,6,0,1,1,1026.5,165.5A6,6,0,1,1,1038.5,165.5"></path><path id="kity_path_162" fill="none" stroke="gray" d="M1028,165.5L1037,165.5"></path></g><path id="node_outline17" fill="none" stroke="none" d="M1003.5,171.5h58a5,5,0,0,1,5,5v12a5,5,0,0,1,-5,5h-58a5,5,0,0,1,-5,-5v-12a5,5,0,0,1,5,-5z"></path><g id="node_text17" fill="black"><text id="kity_text_95" text-rendering="inherit" font-size="12" dy=".8em" y="174.5800018310547" x="1008.5">订单管理</text></g></g><g id="minder_node15"><g id="node_expander12" style="cursor: pointer;" display="none"><path id="kity_path_149" fill="white" stroke="gray" d="M912.5,217.5A6,6,0,1,1,900.5,217.5A6,6,0,1,1,912.5,217.5"></path><path id="kity_path_150" fill="none" stroke="gray"></path></g><path id="node_outline13" fill="none" stroke="none" d="M877.5,223.5h58a5,5,0,0,1,5,5v12a5,5,0,0,1,-5,5h-58a5,5,0,0,1,-5,-5v-12a5,5,0,0,1,5,-5z"></path><g id="node_text13" fill="black"><text id="kity_text_87" text-rendering="inherit" font-size="12" dy=".8em" y="226.5800018310547" x="882.5">查看订单</text></g></g><g id="minder_node16"><g id="node_expander13" style="cursor: pointer;" display="none"><path id="kity_path_152" fill="white" stroke="gray" d="M1008.5,217.5A6,6,0,1,1,996.5,217.5A6,6,0,1,1,1008.5,217.5"></path><path id="kity_path_153" fill="none" stroke="gray"></path></g><path id="node_outline14" fill="none" stroke="none" d="M985.5,223.5h34a5,5,0,0,1,5,5v12a5,5,0,0,1,-5,5h-34a5,5,0,0,1,-5,-5v-12a5,5,0,0,1,5,-5z"></path><g id="node_text14" fill="black"><text id="kity_text_89" text-rendering="inherit" font-size="12" dy=".8em" y="226.5800018310547" x="990.5">删除</text></g></g><g id="minder_node17"><g id="node_expander14" style="cursor: pointer;" display="none"><path id="kity_path_155" fill="white" stroke="gray" d="M1092.5,217.5A6,6,0,1,1,1080.5,217.5A6,6,0,1,1,1092.5,217.5"></path><path id="kity_path_156" fill="none" stroke="gray"></path></g><path id="node_outline15" fill="none" stroke="none" d="M1069.5,223.5h34a5,5,0,0,1,5,5v12a5,5,0,0,1,-5,5h-34a5,5,0,0,1,-5,-5v-12a5,5,0,0,1,5,-5z"></path><g id="node_text15" fill="black"><text id="kity_text_91" text-rendering="inherit" font-size="12" dy=".8em" y="226.5800018310547" x="1074.5">筛选</text></g></g><g id="minder_node18"><g id="node_expander15" style="cursor: pointer;" display="none"><path id="kity_path_158" fill="white" stroke="gray" d="M1176.5,217.5A6,6,0,1,1,1164.5,217.5A6,6,0,1,1,1176.5,217.5"></path><path id="kity_path_159" fill="none" stroke="gray"></path></g><path id="node_outline16" fill="none" stroke="none" d="M1153.5,223.5h34a5,5,0,0,1,5,5v12a5,5,0,0,1,-5,5h-34a5,5,0,0,1,-5,-5v-12a5,5,0,0,1,5,-5z"></path><g id="node_text16" fill="black"><text id="kity_text_93" text-rendering="inherit" font-size="12" dy=".8em" y="226.5800018310547" x="1158.5">结算</text></g></g></g></g></svg>